<?xml version="1.0" encoding="UTF-8" standalone="no"?>
<!DOCTYPE svg PUBLIC "-//W3C//DTD SVG 1.1//EN" "http://www.w3.org/Graphics/SVG/1.1/DTD/svg11.dtd">
<svg width="100%" height="100%" viewBox="0 0 250 33" version="1.1" xmlns="http://www.w3.org/2000/svg" xmlns:xlink="http://www.w3.org/1999/xlink" xml:space="preserve" xmlns:serif="http://www.serif.com/">
    <g transform="matrix(1,0,0,1,0,-217)" fill="#FFFFFF">
        <g id="logo_horizontal" transform="matrix(2.17373,0,0,0.447387,-111.985,145.953)">
            <g transform="matrix(1.05383,0,0,1.83028,-3.21002,-135.338)">
                <g>
                    <g transform="matrix(0.417414,0,0,1.16773,-145.316,-253.586)">
                        <path d="M479.997,381.008C480.967,381.738 481.595,382.899 481.595,384.206C481.595,386.414 479.803,388.206 477.595,388.206C475.387,388.206 473.595,386.414 473.595,384.206C473.595,382.896 474.226,381.733 475.2,381.003L475.2,357.598L480.038,357.598L494.347,378.016L494.347,362.892C493.374,362.162 492.744,360.999 492.744,359.691C492.744,357.483 494.537,355.691 496.744,355.691C498.952,355.691 500.744,357.483 500.744,359.691C500.744,361.017 500.098,362.193 499.103,362.921L499.103,386.298L494.265,386.298L479.997,365.88L479.997,381.008Z" />
                    </g>
                    <g transform="matrix(0.417414,0,0,1.16773,-145.782,-253.586)">
                        <path d="M515.38,378.508C521.243,378.508 526.04,373.711 526.04,367.848C526.04,361.985 521.243,357.188 515.38,357.188C509.517,357.188 504.72,361.985 504.72,367.848C504.72,373.711 509.517,378.508 515.38,378.508ZM515.38,361.944C518.66,361.944 521.284,364.568 521.284,367.848C521.284,371.128 518.66,373.752 515.38,373.752C512.1,373.752 509.476,371.128 509.476,367.848C509.476,364.568 512.1,361.944 515.38,361.944ZM524.728,381.542L505.786,381.542L505.786,386.298L524.728,386.298L524.728,381.542Z"/>
                    </g>
                    <g transform="matrix(0.417414,0,0,1.16773,-146.298,-253.586)">
                        <path d="M531.78,357.598L531.78,386.298L536.577,386.298C543.711,386.298 553.346,384.207 553.346,371.948C553.346,359.197 543.547,357.598 536.577,357.598L531.78,357.598ZM536.577,381.624L536.577,362.272C536.577,362.272 548.508,360.468 548.508,371.948C548.508,383.264 536.577,381.624 536.577,381.624Z"/>
                    </g>
                    <g transform="matrix(0.417414,0,0,1.16773,-146.746,-253.586)">
                        <path d="M578.069,362.395L578.069,357.598L558.922,357.598L558.922,386.298L578.069,386.298L578.069,381.501L563.719,381.501L563.719,374.326L575.65,374.326L575.65,369.57L563.719,369.57L563.719,362.395L578.069,362.395Z"/>
                    </g>
                </g>
                <g>
                    <g transform="matrix(0.417414,0,0,1.16773,-145.681,-253.586)">
                        <path d="M582.508,364.457C580.453,364.079 578.893,362.275 578.893,360.111C578.893,357.671 580.874,355.691 583.313,355.691C585.752,355.691 587.733,357.671 587.733,360.111C587.733,361.06 587.433,361.939 586.924,362.659L591.319,374.524L596.109,361.678C595.924,361.191 595.823,360.662 595.823,360.111C595.823,357.671 597.803,355.691 600.243,355.691C602.682,355.691 604.663,357.671 604.663,360.111C604.663,360.6 604.583,361.071 604.436,361.511L609.288,374.524L613.664,362.79C613.096,362.047 612.758,361.118 612.758,360.111C612.758,357.671 614.739,355.691 617.178,355.691C619.617,355.691 621.598,357.671 621.598,360.111C621.598,362.219 620.119,363.984 618.143,364.425L609.288,387.447L600.571,364.519C600.462,364.527 600.353,364.531 600.243,364.531C600.173,364.531 600.103,364.529 600.034,364.526L591.319,387.447L582.508,364.457Z"/>
                    </g>
                    <g transform="matrix(0.417414,0,0,1.16773,-145.316,-253.586)">
                        <path d="M643.258,362.38L643.258,357.58L624.099,357.58L624.099,386.298L643.258,386.298L643.258,381.498L628.899,381.498L628.899,374.319L640.838,374.319L640.838,369.56L628.899,369.56L628.899,362.38L643.258,362.38Z"/>
                    </g>
                    <g transform="matrix(0.417414,0,0,1.16773,-146.01,-253.586)">
                        <path d="M665.412,386.298L670.582,386.298L659.094,356.76L647.648,386.298L652.817,386.298L654.048,382.975L664.14,382.975L665.412,386.298ZM659.094,368.862L662.581,378.832L655.607,378.832L659.094,368.862Z"/>
                    </g>
                    <g transform="matrix(0.417414,0,0,1.16773,-146.974,-253.586)">
                        <path d="M668.12,357.58L679.607,387.488L691.054,357.58L668.12,357.58ZM675.176,362.339L683.997,362.339L679.607,374.565L675.176,362.339Z"/>
                    </g>
                    <g transform="matrix(0.417414,0,0,1.16773,-147.137,-253.586)">
                        <path d="M713.331,362.38L713.331,357.58L694.172,357.58L694.172,386.298L713.331,386.298L713.331,381.498L698.972,381.498L698.972,374.319L710.91,374.319L710.91,369.56L698.972,369.56L698.972,362.38L713.331,362.38Z"/>
                    </g>
                    <g transform="matrix(0.417414,0,0,1.16773,-147.313,-253.586)">
                        <path d="M732.449,386.298L737.741,386.298L731.875,373.58C734.459,372.637 737.413,370.585 737.413,365.95C737.413,357.58 727.813,357.58 727.813,357.58L718.254,357.58L718.254,386.298L723.054,386.298L723.054,374.319L726.952,374.319L732.449,386.298ZM723.054,362.38L727.813,362.38C727.813,362.38 732.613,362.38 732.613,365.95C732.613,369.56 727.813,369.56 727.813,369.56L723.054,369.56L723.054,362.38Z"/>
                    </g>
                </g>
            </g>
        </g>
    </g>
</svg>
